<svg width="19" height="38" viewBox="0 0 19 38" fill="none" xmlns="http://www.w3.org/2000/svg">
<g id="crumbs">
<g id="Group">
<path id="Vector" d="M0.000198364 1.68973V5.95273C0.000198364 7.14826 1.2074 7.96556 2.31737 7.5215L7.38638 5.49393C8.02778 5.23726 8.44849 4.61595 8.44849 3.92517V1.68973C8.44849 0.756629 7.69186 0 6.75875 0H1.68974C0.756826 0 0.000198364 0.756629 0.000198364 1.68973Z" fill="#FFE6A1"/>
<path id="Vector_2" d="M3.61261 15.0105L2.53442 22.5584C2.2808 24.3339 3.45852 25.9983 5.21697 26.3499L8.31144 26.9688C9.65434 27.2375 11.0263 26.669 11.786 25.5296L12.9498 23.7839C13.5525 22.8796 13.6838 21.7405 13.3022 20.723L9.77704 11.3228C9.33852 10.1537 7.83885 9.8289 6.9559 10.7119L4.56868 13.0989C4.0515 13.6159 3.71616 14.2868 3.61261 15.0105Z" fill="#FFE6A1"/>
</g>
<g id="Group_2">
<path id="Vector_3" d="M12.0835 23.9673L8.98902 23.3485C7.23038 22.9967 6.05285 21.3322 6.30646 19.5569L7.38466 12.0092C7.48093 11.336 7.79484 10.7212 8.25153 10.2209C7.79292 10.1977 7.32206 10.3453 6.9559 10.7113L4.56849 13.0985C4.0515 13.6155 3.71597 14.2864 3.6128 15.0101L2.53461 22.5578C2.281 24.3335 3.45872 25.9978 5.21717 26.3494L8.31163 26.9682C9.65435 27.2365 11.0265 26.6684 11.7862 25.529L12.8043 24.002C12.5647 24.0067 12.3248 24.0157 12.0835 23.9673Z" fill="#FFD796"/>
<path id="Vector_4" d="M5.69664 4.14203C4.58667 4.5859 3.37947 3.7686 3.37947 2.57327V0H1.68973C0.756629 0 0 0.756629 0 1.68973V5.95273C0 7.14826 1.2072 7.96556 2.31717 7.5215L7.38618 5.49393C8.02758 5.23726 8.44829 4.61614 8.44829 3.92517V3.04145L5.69664 4.14203Z" fill="#FFD796"/>
<path id="Vector_5" d="M12.6701 31.7813L11.6714 33.7788C11.4337 34.2544 11.4337 34.8143 11.6714 35.29L12.1271 36.2018C12.5817 37.1108 13.73 37.4159 14.5756 36.8522L17.2995 35.0363C17.7696 34.7228 18.0519 34.1953 18.0519 33.6305V31.81C18.0519 30.6568 16.922 29.8423 15.828 30.2072L13.6469 30.9341C13.222 31.0756 12.8705 31.3803 12.6701 31.7813Z" fill="#FFD796"/>
</g>
</g>
</svg>
